# xmcd
#
# Track frame offsets:
#       150
#       25843
#       40563
#       59584
#       82309
#       102498
#       125179
#       140373
#       155321
#       170746
#       190671
#       206044
#
# Disc length: 2975 seconds
#
# Revision: 0
# Processed by: cddbd v1.5.2PL0 Copyright (c) Steve Scherf et al.
# Submitted via: WaveLab 4.01
#
DISCID=ad0b9d0c
DTITLE=SongDogs - Restless No More
DYEAR=2009
DGENRE=Alternative Country
TTITLE0=Backroad 49
TTITLE1=Getaway
TTITLE2=Desire
TTITLE3=Black Shines
TTITLE4=Heavy Load
TTITLE5=Down The Line
TTITLE6=Cigarettes and Coffee
TTITLE7=Restless No More
TTITLE8=One More Rainbow For The Road
TTITLE9=Mouthfull Of Swallows
TTITLE10=Such A Fine Day
TTITLE11=Lonesome Death Blues
EXTD=
EXTT0=
EXTT1=
EXTT2=
EXTT3=
EXTT4=
EXTT5=
EXTT6=
EXTT7=
EXTT8=
EXTT9=
EXTT10=
EXTT11=
PLAYORDER=
